<?xml version="1.0" standalone="no"?>
<!DOCTYPE svg PUBLIC "-//W3C//DTD SVG 20010904//EN"
 "http://www.w3.org/TR/2001/REC-SVG-20010904/DTD/svg10.dtd">
<svg version="1.0" xmlns="http://www.w3.org/2000/svg"
 width="980.000000pt" height="980.000000pt" viewBox="0 0 980.000000 980.000000"
 preserveAspectRatio="xMidYMid meet">

<g transform="translate(0.000000,980.000000) scale(0.100000,-0.100000)"
fill="#000000" stroke="none">
<path d="M4484 8570 c-132 -24 -302 -108 -409 -201 -64 -57 -153 -176 -195
-262 -56 -118 -83 -230 -84 -354 -1 -57 -2 -103 -3 -103 -2 0 -94 -24 -205
-54 -112 -30 -237 -64 -278 -75 -41 -11 -169 -45 -285 -76 -115 -31 -302 -81
-413 -111 -112 -30 -229 -67 -260 -83 -207 -104 -331 -288 -357 -527 -10 -84
5 -163 80 -443 36 -134 65 -245 65 -247 0 -14 70 -78 98 -89 51 -22 71 -19
252 30 91 25 166 45 167 45 1 0 4 -843 6 -1872 3 -1678 5 -1880 19 -1943 104
-452 393 -780 813 -923 185 -64 133 -62 1737 -62 982 0 1482 3 1534 11 170 23
357 97 510 199 112 75 276 245 343 352 101 166 159 334 181 523 6 58 10 873 9
2295 0 2346 2 2249 -46 2302 -50 55 -16 53 -828 58 l-749 5 214 58 c118 31
418 111 665 177 248 66 467 128 489 137 48 21 87 78 93 135 3 32 -15 113 -66
303 -89 330 -117 390 -233 501 -132 126 -272 183 -449 184 -86 0 -102 -4 -774
-184 -652 -176 -718 -192 -722 -180 -16 49 -94 155 -168 230 -107 108 -206
170 -345 215 -82 27 -113 32 -225 35 -71 1 -153 -1 -181 -6z m329 -370 c72
-27 170 -100 215 -160 31 -41 33 -45 16 -52 -17 -7 -174 -50 -695 -188 -103
-28 -192 -50 -199 -50 -27 0 15 159 64 242 52 89 145 167 246 206 80 30 85 31
195 28 74 -3 115 -9 158 -26z m2212 -118 c60 -29 112 -77 139 -130 14 -27 99
-333 94 -337 -2 -1 -235 -64 -518 -140 -283 -76 -679 -181 -880 -235 -976
-262 -1250 -335 -1425 -382 -104 -28 -228 -61 -275 -73 -47 -13 -204 -55 -350
-94 -146 -39 -350 -94 -455 -122 -104 -28 -253 -68 -330 -89 -77 -21 -228 -61
-335 -90 -107 -28 -208 -56 -224 -61 -17 -5 -33 -6 -37 -2 -4 5 -26 80 -49
168 -35 131 -41 169 -36 213 11 90 63 172 140 217 22 13 136 49 251 80 116 31
334 89 485 130 151 41 309 83 350 94 41 11 170 45 285 76 781 210 1199 322
1325 355 204 54 406 108 690 185 135 36 279 75 320 86 104 28 511 138 590 159
101 28 174 25 245 -8z m433 -3582 c2 -1486 0 -2128 -8 -2183 -52 -365 -336
-664 -698 -733 -110 -21 -2924 -21 -3034 0 -328 63 -585 306 -680 641 l-23 80
-3 1899 c-1 1045 1 1903 5 1907 5 4 202 59 438 123 782 209 1038 278 1215 326
l175 48 1305 -1 1305 -2 3 -2105z"/>
<path d="M3935 5549 c-40 -12 -57 -27 -89 -73 l-26 -39 0 -699 c0 -675 1 -700
20 -737 60 -118 246 -114 306 6 18 36 19 69 19 728 0 659 -1 692 -19 728 -36
72 -133 112 -211 86z"/>
<path d="M5164 5541 c-47 -22 -80 -59 -95 -110 -7 -24 -9 -262 -7 -722 l3
-686 28 -36 c53 -69 130 -93 204 -62 50 21 72 42 94 90 17 38 19 82 19 722 0
459 -3 691 -11 710 -15 40 -48 73 -94 94 -51 23 -89 23 -141 0z"/>
<path d="M6402 5539 c-29 -15 -51 -36 -70 -68 l-27 -46 -2 -669 c-2 -458 1
-683 8 -710 16 -58 82 -121 135 -130 90 -15 180 43 204 133 7 27 10 252 8 708
l-3 668 -27 47 c-48 81 -141 109 -226 67z"/>
<path d="M3934 3260 c-36 -11 -101 -78 -109 -113 -4 -13 -5 -114 -3 -224 3
-186 5 -204 24 -230 37 -50 81 -73 141 -73 62 0 100 17 137 60 42 50 48 90 44
280 -2 148 -6 181 -22 213 -35 71 -133 111 -212 87z"/>
<path d="M5177 3256 c-50 -18 -76 -42 -98 -91 -16 -34 -19 -67 -19 -226 0
-175 1 -188 23 -230 63 -120 244 -119 305 1 20 41 22 57 22 230 0 198 -9 240
-58 283 -23 21 -87 46 -117 46 -11 0 -37 -6 -58 -13z"/>
<path d="M6435 3262 c-44 -15 -84 -47 -106 -86 -21 -37 -24 -57 -27 -189 -6
-235 8 -291 87 -344 40 -27 126 -31 170 -8 41 21 79 69 92 118 17 65 8 374
-13 412 -42 77 -132 120 -203 97z"/>
</g>
</svg>
