<?xml version="1.0" standalone="no"?>
<!DOCTYPE svg PUBLIC "-//W3C//DTD SVG 20010904//EN"
 "http://www.w3.org/TR/2001/REC-SVG-20010904/DTD/svg10.dtd">
<svg version="1.0" xmlns="http://www.w3.org/2000/svg"
 width="659.000000pt" height="218.000000pt" viewBox="0 0 659.000000 218.000000"
 preserveAspectRatio="xMidYMid meet">

<g transform="translate(0.000000,218.000000) scale(0.100000,-0.100000)"
fill="#000000" stroke="none">
<path d="M2532 1742 c-66 -24 -89 -45 -118 -107 -44 -92 -29 -233 32 -303 43
-51 101 -74 186 -74 80 0 139 27 175 81 31 46 30 67 -6 74 -16 3 -40 9 -55 13
-19 4 -26 2 -26 -8 0 -29 -44 -58 -89 -58 -83 0 -111 38 -111 152 0 92 22 134
74 143 60 12 98 -11 119 -69 1 -4 29 -3 61 5 57 12 58 13 52 43 -20 102 -163
154 -294 108z"/>
<path d="M1300 1665 l0 -85 45 0 45 0 0 40 0 40 40 0 40 0 0 -154 0 -155 -27
-3 c-25 -3 -28 -7 -28 -43 l0 -40 113 -3 112 -3 0 46 c0 41 -2 45 -25 45 l-25
0 0 156 0 155 38 -3 c35 -3 37 -5 40 -41 l3 -38 42 3 42 3 3 83 3 82 -231 0
-230 0 0 -85z"/>
<path d="M1870 1710 c0 -36 3 -40 25 -40 l25 0 0 -160 0 -160 -25 0 c-23 0
-25 -4 -25 -45 l0 -45 195 0 195 0 0 85 0 85 -45 0 c-45 0 -45 0 -45 -35 l0
-35 -65 0 -65 0 0 50 0 50 70 0 70 0 0 45 0 44 -67 3 -68 3 0 50 0 50 57 3 57
3 3 -33 c3 -32 4 -33 48 -33 l45 0 3 78 3 77 -196 0 -195 0 0 -40z"/>
<path d="M2950 1710 c0 -36 3 -40 25 -40 l25 0 0 -160 0 -160 -25 0 c-23 0
-25 -4 -25 -45 l0 -46 113 3 112 3 3 43 c3 41 2 42 -27 42 -31 0 -31 0 -31 55
l0 55 100 0 100 0 0 -55 c0 -52 -1 -55 -25 -55 -23 0 -25 -4 -25 -45 l0 -46
113 3 112 3 3 43 c3 39 1 42 -22 42 l-26 0 0 160 0 160 25 0 c23 0 25 4 25 40
l0 40 -115 0 -115 0 0 -40 c0 -36 3 -40 25 -40 24 0 25 -3 25 -60 l0 -61 -97
3 -98 3 0 55 c0 53 1 55 28 58 24 3 27 7 27 43 l0 39 -115 0 -115 0 0 -40z"/>
<path d="M3703 1629 c-37 -11 -73 -52 -73 -84 0 -18 7 -24 38 -29 59 -9 69 -7
75 15 4 16 12 20 34 17 23 -2 29 -8 31 -35 4 -40 -26 -73 -68 -73 -29 0 -30
-2 -30 -45 0 -44 1 -45 33 -45 47 0 77 -24 77 -64 0 -39 -15 -56 -52 -56 -21
0 -29 6 -33 23 -6 23 -8 24 -58 12 -62 -14 -68 -30 -32 -73 45 -54 146 -66
226 -28 45 21 69 63 69 121 0 37 -5 52 -28 74 -15 15 -33 30 -40 32 -9 3 -2
17 22 42 60 64 47 150 -29 187 -44 21 -107 25 -162 9z"/>
<path d="M1383 1010 c-79 -35 -95 -126 -34 -184 16 -15 57 -38 92 -51 71 -25
90 -45 70 -69 -21 -25 -68 -20 -96 10 -21 23 -28 25 -70 18 -44 -6 -46 -8 -40
-33 15 -59 74 -91 167 -91 77 0 122 24 144 76 24 57 3 118 -51 147 -11 6 -47
20 -80 32 -44 16 -61 27 -63 43 -7 43 80 53 93 11 4 -13 13 -18 23 -15 9 2 32
7 50 11 36 7 41 27 17 61 -37 53 -145 70 -222 34z"/>
<path d="M2315 1015 c-91 -32 -139 -136 -115 -251 13 -63 56 -119 107 -140 18
-8 58 -14 90 -14 80 0 136 29 171 88 23 41 27 58 27 128 0 71 -3 85 -27 121
-49 74 -155 103 -253 68z m123 -75 c25 0 52 -63 52 -120 0 -93 -41 -140 -112
-126 -46 8 -68 42 -74 109 -8 84 44 156 101 142 11 -2 26 -5 33 -5z"/>
<path d="M3704 1016 c-67 -29 -92 -102 -59 -166 17 -32 42 -48 130 -81 60 -22
75 -40 55 -64 -24 -29 -110 -7 -110 29 0 10 -11 10 -50 2 -57 -11 -63 -27 -28
-71 29 -37 76 -55 143 -55 106 0 155 39 155 123 0 64 -31 96 -123 126 -79 27
-100 52 -63 76 30 20 73 11 82 -17 3 -11 12 -17 19 -14 8 3 30 8 49 12 40 7
42 11 24 49 -26 56 -148 84 -224 51z"/>
<path d="M1720 950 l0 -70 34 0 c32 0 35 3 38 33 3 28 6 32 33 32 l30 0 0
-130 c0 -127 0 -130 -22 -133 -19 -3 -23 -10 -23 -38 l0 -35 98 3 97 3 3 32
c3 26 -1 32 -20 35 -23 3 -23 5 -23 133 l0 130 30 0 c27 0 30 -4 33 -32 3 -30
6 -33 38 -33 l34 0 0 70 0 70 -190 0 -190 0 0 -70z"/>
<path d="M2710 986 c0 -29 4 -36 20 -36 19 0 20 -7 20 -135 0 -128 -1 -135
-20 -135 -16 0 -20 -7 -20 -35 l0 -35 95 0 95 0 0 34 c0 28 -4 35 -22 38 -19
2 -24 10 -26 46 -3 42 -2 43 25 40 23 -2 33 -13 58 -66 32 -67 60 -91 107 -92
22 0 29 6 34 28 3 15 8 33 10 40 2 8 -5 16 -16 19 -11 3 -31 26 -45 50 l-25
45 30 35 c24 27 30 43 30 81 0 41 -5 53 -31 78 -30 29 -30 29 -175 32 l-144 3
0 -35z m242 -59 c13 -20 9 -54 -7 -67 -9 -7 -32 -13 -53 -14 -36 -1 -37 0 -40
38 -5 61 2 70 50 62 23 -4 46 -12 50 -19z"/>
<path d="M3182 988 c2 -25 8 -34 26 -36 22 -3 22 -6 22 -138 l0 -134 -26 0
c-23 0 -25 -3 -22 -32 l3 -33 163 -3 162 -2 0 70 0 70 -35 0 c-32 0 -35 -2
-35 -30 0 -30 -1 -30 -55 -30 l-55 0 0 45 0 45 60 0 60 0 0 40 0 40 -61 0 -60
0 3 43 3 42 47 3 c44 3 47 2 50 -25 3 -24 8 -28 41 -31 l37 -3 0 65 0 66 -166
0 -165 0 3 -32z"/>
</g>
</svg>
